<?xml version="1.0" standalone="no"?>
<!DOCTYPE svg PUBLIC "-//W3C//DTD SVG 20010904//EN"
 "http://www.w3.org/TR/2001/REC-SVG-20010904/DTD/svg10.dtd">
<svg version="1.0" xmlns="http://www.w3.org/2000/svg"
 width="268.000000pt" height="268.000000pt" viewBox="0 0 268.000000 268.000000"
 preserveAspectRatio="xMidYMid meet">
<metadata>
Created by potrace 1.11, written by Peter Selinger 2001-2013
</metadata>
<g transform="translate(0.000000,268.000000) scale(0.100000,-0.100000)"
fill="#000000" stroke="none">
<path d="M140 2235 l0 -425 100 0 100 0 0 -32 0 -33 33 46 c40 58 116 115 171
130 22 6 47 16 54 22 7 5 54 11 105 12 142 3 239 -33 333 -122 69 -65 108
-132 129 -226 22 -96 16 -173 -20 -281 -22 -65 -24 -80 -13 -94 7 -9 70 -73
141 -143 70 -70 127 -132 127 -138 0 -5 -28 -37 -61 -70 -72 -70 -72 -70 -150
12 l-49 51 0 -67 0 -67 100 0 100 0 0 -100 0 -100 100 0 100 0 0 -100 0 -100
100 0 100 0 0 -100 0 -100 100 0 100 0 0 -100 0 -100 310 0 310 0 0 425 0 425
-100 0 -100 0 0 100 0 100 -100 0 -100 0 0 100 0 100 -100 0 -100 0 0 100 0
100 -100 0 -100 0 0 100 0 100 -100 0 -100 0 0 100 0 100 -100 0 -100 0 0 100
0 100 -100 0 -100 0 0 100 0 100 -100 0 -100 0 0 100 0 100 -100 0 -100 0 0
100 0 100 -310 0 -310 0 0 -425z"/>
<path d="M635 1795 c-27 -8 -53 -14 -57 -15 -22 -1 -148 -138 -148 -161 0 -5
25 -9 55 -9 l55 0 0 -100 0 -100 100 0 100 0 0 -100 0 -100 61 0 c66 0 97 15
155 76 62 66 91 222 58 309 -9 22 -18 50 -21 63 -7 31 -89 97 -157 127 -64 28
-124 31 -201 10z m106 -104 c33 -34 38 -74 12 -111 -23 -34 -33 -40 -68 -40
-64 0 -104 56 -84 117 21 63 93 81 140 34z"/>
<path d="M947 1103 c-4 -3 -7 -26 -7 -50 l0 -43 67 0 67 0 -52 50 c-52 50 -63
56 -75 43z"/>
</g>
</svg>
